<svg width="130" height="130" viewBox="0 0 130 130" fill="none" xmlns="http://www.w3.org/2000/svg">
<g clip-path="url(#clip0_243_4)">
<path d="M143 -13H-13V143H143V-13Z" fill="white"/>
<path d="M143 -13H-13V143H143V-13Z" fill="white"/>
<mask id="mask0_243_4" style="mask-type:luminance" maskUnits="userSpaceOnUse" x="2" y="15" width="61" height="100">
<path d="M2.37823 15.6001H62.4V114.4H2.37823V15.6001Z" fill="white"/>
</mask>
<g mask="url(#mask0_243_4)">
<path d="M43.5872 69.7591C40.0698 71.1005 36.2163 71.9384 32.1961 71.9384C15.6956 71.8546 2.37823 59.2795 2.37823 43.8539C2.37823 28.4282 15.6956 15.7693 32.1961 15.7693C48.6967 15.7693 62.014 28.3444 62.014 43.8539C66.2018 85.1009 17.4552 114.275 17.4552 114.275L13.6017 109.664C13.6017 109.58 45.8487 84.5973 43.5872 69.7591Z" fill="black"/>
</g>
<path d="M107.327 69.7591C103.809 71.1005 99.9561 71.9384 95.9359 71.9384C79.4354 71.9384 66.118 59.3633 66.118 43.8539C66.118 28.3444 79.4354 15.7693 95.9359 15.7693C112.436 15.7693 125.753 28.3444 125.753 43.8539C129.941 85.1009 81.1941 114.275 81.1941 114.275L77.3415 109.664C77.3415 109.58 109.588 84.5973 107.327 69.7591Z" fill="black"/>
</g>
<defs>
<clipPath id="clip0_243_4">
<rect width="130" height="130" fill="white"/>
</clipPath>
</defs>
</svg>
